<?xml version="1.0" encoding="UTF-8"?>
<svg version="1.1" xmlns="http://www.w3.org/2000/svg" width="500" height="500">
<path d="M0 0 C34.32 0 68.64 0 104 0 C106 10 106 10 106 16 C117.88 16 129.76 16 142 16 C142 16.99 142 17.98 142 19 C137.71 19.66 133.42 20.32 129 21 C131.05683379 28.58414322 133.86048699 35.30869201 137.375 42.32421875 C138.16185181 43.91916924 138.16185181 43.91916924 138.96459961 45.54634094 C140.63580676 48.93037766 142.31745242 52.30908971 144 55.6875 C146.19008691 60.10679406 148.37624496 64.52802805 150.5625 68.94921875 C151.10116699 70.0370163 151.63983398 71.12481384 152.19482422 72.24557495 C155.84464782 79.62661784 159.44582738 87.02945877 163 94.45703125 C163.43256104 95.36023605 163.86512207 96.26344086 164.31079102 97.1940155 C167.28311515 103.42871466 170.16064203 109.70371426 173 116 C176.05532229 111.73942722 178.14026574 107.58783414 179.8671875 102.625 C180.11042755 101.93744629 180.3536676 101.24989258 180.60427856 100.54150391 C181.11117549 99.09761693 181.61346783 97.65210585 182.11132812 96.20507812 C182.87527908 93.99919416 183.66734838 91.80474268 184.4609375 89.609375 C184.95227264 88.19852552 185.441915 86.78708515 185.9296875 85.375 C186.16807343 84.7248291 186.40645935 84.0746582 186.65206909 83.40478516 C189.06143875 76.19480406 185.70847912 71.11770656 182.55078125 64.6875 C182.21507614 63.99672363 181.87937103 63.30594727 181.53349304 62.59423828 C180.46327721 60.39445939 179.38789876 58.19724894 178.3125 56 C177.60970358 54.5561465 176.90722703 53.11213725 176.20507812 51.66796875 C173.48078878 46.07296297 170.75041162 40.48156247 167.95458984 34.921875 C167.47097237 33.96015381 167.47097237 33.96015381 166.97758484 32.97900391 C166.09963835 31.23741584 165.21827143 29.49755323 164.33666992 27.7578125 C163 25 163 25 162 22 C159.20827761 20.96683512 159.20827761 20.96683512 155.9375 20.3125 C154.83277344 20.06113281 153.72804688 19.80976563 152.58984375 19.55078125 C151.73519531 19.36902344 150.88054687 19.18726563 150 19 C150 18.01 150 17.02 150 16 C174.75 16 199.5 16 225 16 C225 16.99 225 17.98 225 19 C223.96939453 19.27263672 223.96939453 19.27263672 222.91796875 19.55078125 C222.01691406 19.80214844 221.11585938 20.05351562 220.1875 20.3125 C219.29417969 20.55613281 218.40085937 20.79976562 217.48046875 21.05078125 C214.26359191 22.28180656 212.623512 23.76696922 211.06445312 26.85009766 C210.67676758 27.87176025 210.67676758 27.87176025 210.28125 28.9140625 C209.98863281 29.67589844 209.69601562 30.43773437 209.39453125 31.22265625 C209.09933594 32.01542969 208.80414063 32.80820313 208.5 33.625 C208.20480469 34.39457031 207.90960938 35.16414063 207.60546875 35.95703125 C206.71561576 38.29730541 205.8571911 40.64759487 205 43 C204.69578125 43.78600586 204.3915625 44.57201172 204.078125 45.38183594 C202.38172416 49.97946775 201.48222106 53.15659876 203 58 C204.37209279 61.01483203 204.37209279 61.01483203 206.0625 63.875 C206.61035156 64.84179688 207.15820312 65.80859375 207.72265625 66.8046875 C208.14417969 67.52914062 208.56570313 68.25359375 209 69 C209.99 68.236875 210.98 67.47375 212 66.6875 C220.95800064 60.29926924 231.22192254 59.19164419 242 60 C245.43628243 60.76958409 248.68888182 61.81627525 252 63 C252.24327026 62.14776855 252.24327026 62.14776855 252.49145508 61.27832031 C253.94158597 56.31294549 255.5264725 51.42033256 257.26171875 46.546875 C257.65810547 45.433125 258.05449219 44.319375 258.46289062 43.171875 C259.28558661 40.87304985 260.11379854 38.57619192 260.94726562 36.28125 C261.33978516 35.17265625 261.73230469 34.0640625 262.13671875 32.921875 C262.49467529 31.92768555 262.85263184 30.93349609 263.22143555 29.90917969 C264.04827304 26.81962324 264.1409727 24.18355962 264 21 C260.7 20.34 257.4 19.68 254 19 C254 18.01 254 17.02 254 16 C263.57 16 273.14 16 283 16 C283.33 16.99 283.66 17.98 284 19 C283.24074219 19.18175781 282.48148437 19.36351562 281.69921875 19.55078125 C280.70535156 19.80214844 279.71148437 20.05351562 278.6875 20.3125 C277.70136719 20.55613281 276.71523438 20.79976562 275.69921875 21.05078125 C272.85741505 22.05014203 271.76408451 22.60400462 270 25 C268.6269973 27.78473184 268.6269973 27.78473184 267.375 31.125 C267.12991699 31.75156494 266.88483398 32.37812988 266.63232422 33.02368164 C262.54563977 43.60266108 258.79725133 54.31468187 255 65 C256.17369141 65.44811035 256.17369141 65.44811035 257.37109375 65.90527344 C266.88988053 69.86907729 272.94399508 79.30226751 276.984375 88.31640625 C280.77954148 98.34440383 280.11629636 110.31943162 276.32421875 120.21875 C271.02831274 131.34171483 263.22275886 139.25026386 251.8515625 143.99609375 C242.63202685 147.24187548 232.96448123 148.09099824 223.49404907 145.24761963 C220.45941012 143.72957607 219.81722979 142.58336384 218.36865234 139.55371094 C217.91823578 138.63225281 217.46781921 137.71079468 217.00375366 136.76141357 C216.53587433 135.76249084 216.067995 134.76356812 215.5859375 133.734375 C215.08961823 132.70822083 214.59329895 131.68206665 214.0819397 130.62481689 C212.49757649 127.34034931 210.93604948 124.0456023 209.375 120.75 C208.31660631 118.54485131 207.25672727 116.34041488 206.1953125 114.13671875 C204.24508587 110.0834663 202.30399405 106.02610531 200.37255859 101.96386719 C198.6222243 98.28759067 196.84039228 94.63197183 195 91 C187.2640033 101.49811557 180.67045135 111.37080129 176.7109375 123.8359375 C175.30938472 128.10220257 173.6946453 132.29338195 172.125 136.5 C171.52246251 138.1350577 170.92081168 139.7704426 170.3203125 141.40625 C169.66675781 143.18515625 169.66675781 143.18515625 169 145 C166.6875 145.1875 166.6875 145.1875 164 145 C162.33203125 143.48828125 162.33203125 143.48828125 161 142 C160.00033203 143.48886719 160.00033203 143.48886719 158.98046875 145.0078125 C146.04545708 164.1387256 131.78123992 182.0941223 114 197 C113.38817871 197.51304687 112.77635742 198.02609375 112.14599609 198.5546875 C91.23645338 215.87175228 68.3791764 224.61976044 41 223 C17.28131121 220.4971072 -3.04860866 208.74495428 -18.6484375 191.015625 C-31.10085924 175.04673865 -37.62405651 155.8778698 -37.4375 135.6875 C-37.42847656 134.50760498 -37.41945313 133.32770996 -37.41015625 132.11206055 C-37.09781336 116.30946228 -32.75663495 103.67210846 -25 90 C-24.51660156 89.14792969 -24.03320312 88.29585938 -23.53515625 87.41796875 C-11.32289994 67.77216512 8.43189195 55.15324651 30.59765625 49.69140625 C34.04027734 48.99181505 37.52232168 48.49681119 41 48 C41.33 33.15 41.66 18.3 42 3 C22.31200412 3.63713019 22.31200412 3.63713019 6 13 C1.96130168 18.88876073 -0.23466587 25.1252435 -2 32 C-2.99 32 -3.98 32 -5 32 C-5.28246595 25.55795403 -4.20743789 19.51437133 -3.0625 13.1875 C-2.88009766 12.13884766 -2.69769531 11.09019531 -2.50976562 10.00976562 C-1.13882212 2.27764423 -1.13882212 2.27764423 0 0 Z M61 3 C60.90651696 16.99503121 60.83626749 30.99001394 60.79275131 44.98529339 C60.77186687 51.48371387 60.7435329 57.98192476 60.69824219 64.48022461 C60.65481603 70.75015641 60.63086935 77.01988647 60.62049103 83.28995705 C60.61309393 85.68340036 60.59864937 88.0768325 60.57707977 90.47019005 C60.54808969 93.81980725 60.54404229 97.1685883 60.54589844 100.51831055 C60.53151733 101.51021393 60.51713623 102.50211731 60.50231934 103.52407837 C60.52809368 107.8158605 60.61752102 110.33793949 62.7979126 114.11213684 C65.73688548 116.63173648 68.21515952 116.64293958 72 117 C72.33 117.66 72.66 118.32 73 119 C59.14 119 45.28 119 31 119 C31 118.01 31 117.02 31 116 C32.0725 116.061875 33.145 116.12375 34.25 116.1875 C38.24206212 115.98789689 39.29654 115.80221958 42 113 C42.58097171 110.2412858 42.58097171 110.2412858 42.45410156 107.05981445 C42.45364838 105.22825554 42.45364838 105.22825554 42.45318604 103.35969543 C42.43254089 102.04087875 42.41189575 100.72206207 42.390625 99.36328125 C42.38316326 97.99994231 42.37747001 96.63659264 42.37347412 95.27323914 C42.35821209 91.68743196 42.31892672 88.1022744 42.2746582 84.51672363 C42.23371696 80.85694161 42.21546564 77.19705446 42.1953125 73.53710938 C42.15243188 66.35777698 42.08417508 59.17897956 42 52 C21.53049415 51.72828761 2.9024133 62.92022362 -11.375 76.8125 C-19.79323002 85.33952115 -25.75337996 95.83184268 -30 107 C-30.39316406 108.02480469 -30.78632812 109.04960937 -31.19140625 110.10546875 C-38.43813624 132.45165703 -34.58695445 156.61493415 -24.12890625 177.15625 C-21.35035669 182.3331398 -18.01639516 186.71823587 -14 191 C-13.154375 191.92425781 -12.30875 192.84851563 -11.4375 193.80078125 C-5.51385364 200.01892708 0.49895724 204.83624126 8 209 C8.93457031 209.53367187 9.86914062 210.06734375 10.83203125 210.6171875 C30.32237964 221.10596937 52.80816661 222.54865038 74 217 C92.95632338 210.77247138 108.32396213 198.01632609 122.50830078 184.42871094 C123.88165496 183.11334782 125.2664824 181.8099915 126.65234375 180.5078125 C133.52168169 173.88807136 139.26166032 166.58837431 145 159 C145.53012695 158.30406738 146.06025391 157.60813477 146.60644531 156.89111328 C148.24211732 154.74326603 149.87246458 152.59151809 151.5 150.4375 C152.00450684 149.77089355 152.50901367 149.10428711 153.02880859 148.41748047 C154.37209992 146.62505884 155.68740691 144.81493696 157 143 C157.6496875 142.14535156 158.299375 141.29070312 158.96875 140.41015625 C160.44960352 136.94922209 159.36267924 135.49012488 158 132 C156.67108946 129.05154428 155.25038322 126.15247531 153.81640625 123.25390625 C153.40521042 122.41488266 152.99401459 121.57585907 152.57035828 120.71141052 C151.69236963 118.92082318 150.81270928 117.13105472 149.93151855 115.34204102 C147.63059236 110.6704325 145.34170318 105.99292646 143.05078125 101.31640625 C142.60286224 100.40299469 142.15494324 99.48958313 141.69345093 98.54849243 C138.50810161 92.0498464 135.35685219 85.53659885 132.25 79 C129.13617261 72.44905167 125.99237112 65.91354305 122.8203125 59.390625 C122.27086975 58.26025818 122.27086975 58.26025818 121.71032715 57.10705566 C119.88127965 53.34490765 118.05005387 49.58384094 116.21582031 45.82421875 C115.54745964 44.45055314 114.87916236 43.07685668 114.2109375 41.703125 C113.90108917 41.06989319 113.59124084 40.43666138 113.27200317 39.78424072 C112.02126276 37.20927265 110.90674532 34.72023595 110 32 C108.68 32 107.36 32 106 32 C105.89042969 31.38511719 105.78085938 30.77023438 105.66796875 30.13671875 C105.50941406 29.32847656 105.35085937 28.52023438 105.1875 27.6875 C104.96126953 26.48673828 104.96126953 26.48673828 104.73046875 25.26171875 C103.89274587 22.66791368 103.19886964 21.59917792 101 20 C98.72838745 19.42676193 98.72838745 19.42676193 96.3125 19.3125 C95.50425781 19.24675781 94.69601563 19.18101562 93.86328125 19.11328125 C93.24839844 19.07589844 92.63351563 19.03851563 92 19 C92 18.01 92 17.02 92 16 C94.64 16 97.28 16 100 16 C96.62650397 9.61096732 91.40404181 6.5670368 84.68359375 4.17578125 C79.36569215 2.90704331 74.09521435 2.92132964 68.6640625 2.9609375 C67.55575073 2.96516724 67.55575073 2.96516724 66.42504883 2.96948242 C64.61668538 2.97679189 62.8083384 2.98799952 61 3 Z M187 21 C187.43826069 27.72310541 190.09251667 32.96076602 193.0625 38.9375 C193.53494141 39.90751953 194.00738281 40.87753906 194.49414062 41.87695312 C195.65420146 44.25566373 196.82295355 46.62966099 198 49 C201.23376853 45.76623147 202.18310127 41.50693588 203.6875 37.25 C204.02072266 36.35539062 204.35394531 35.46078125 204.69726562 34.5390625 C206.42960318 29.65538324 207.54482192 26.15509636 206 21 C199.1847713 18.34039855 193.8152287 18.34039855 187 21 Z M210 72 C211.45457005 76.74005783 213.4000844 81.12328352 215.58984375 85.55859375 C215.93503555 86.26597183 216.28022736 86.97334991 216.63587952 87.7021637 C217.73290819 89.94901358 218.83487326 92.19339275 219.9375 94.4375 C221.03583662 96.67837725 222.13306056 98.91978509 223.22840881 101.16212463 C223.90769213 102.55216381 224.58876109 103.94133237 225.2719574 105.32945251 C227.3148018 109.50300243 229.20148678 113.71523542 231 118 C231.66 118 232.32 118 233 118 C235.40535413 111.23822801 237.80781132 104.4754319 240.20825195 97.71191406 C241.02529207 95.41089543 241.84299644 93.11011255 242.66137695 90.80957031 C243.83719569 87.50387251 245.01062741 84.19733582 246.18359375 80.890625 C246.55028671 79.86132874 246.91697968 78.83203247 247.29478455 77.77154541 C247.6350618 76.81085144 247.97533905 75.85015747 248.32592773 74.86035156 C248.6257103 74.01651917 248.92549286 73.17268677 249.23435974 72.30328369 C249.92838579 70.21543779 250.50079067 68.14171998 251 66 C236.06353162 59.66331644 223.01800843 63.4413519 210 72 Z M254 68 C250.35900107 76.44802422 247.15593875 84.98367895 244.171875 93.68359375 C243.73325444 94.95492278 243.29438622 96.22616639 242.85528564 97.49732971 C241.94532943 100.13434151 241.03805032 102.77225354 240.1328125 105.41088867 C238.97548809 108.78373589 237.81175324 112.15433009 236.64609909 115.5243063 C235.74292191 118.13748011 234.84289048 120.75172876 233.94382477 123.36631966 C233.30899299 125.21088377 232.67170162 127.0546008 232.03436279 128.89830017 C231.65016174 130.02039383 231.26596069 131.14248749 230.87011719 132.29858398 C230.53212097 133.28165024 230.19412476 134.26471649 229.84588623 135.27757263 C229.04921168 137.84161556 228.47201751 140.35891654 228 143 C239.60317334 145.23137949 250.13852348 142.36092477 260 136 C266.66061018 130.72197103 270.85293834 124.8544312 274 117 C274.433125 115.9275 274.86625 114.855 275.3125 113.75 C277.58616586 101.3481862 275.84603342 90.9370159 269.25 80.25 C265.33760072 74.72894924 260.76461678 69.50441984 254 68 Z M191 82 C190.34865075 83.56020867 189.70417036 85.12328579 189.0625 86.6875 C188.70285156 87.55761719 188.34320313 88.42773438 187.97265625 89.32421875 C187.0429688 91.88179265 186.45837375 94.3221323 186 97 C189.67033927 93.72291137 191.69281189 90.28477792 194 86 C193.01 84.68 192.02 83.36 191 82 Z " fill="#010101" transform="translate(134,142)"/>
<path d="M0 0 C0.66 0 1.32 0 2 0 C2.33 1.32 2.66 2.64 3 4 C3.99 2.68 4.98 1.36 6 0 C6.99 0.99 7.98 1.98 9 3 C9.33 2.01 9.66 1.02 10 0 C10.66 0 11.32 0 12 0 C11.34 3.96 10.68 7.92 10 12 C9.34 12 8.68 12 8 12 C7.67 10.02 7.34 8.04 7 6 C6.34 6 5.68 6 5 6 C4.34 7.98 3.68 9.96 3 12 C0.50494038 9.50494038 0.64051624 8.32671112 0.375 4.875 C0.30023438 3.96492188 0.22546875 3.05484375 0.1484375 2.1171875 C0.09945313 1.41851562 0.05046875 0.71984375 0 0 Z " fill="#030303" transform="translate(311,302)"/>
<path d="M0 0 C0.66 0 1.32 0 2 0 C3.625 2.5 3.625 2.5 5 5 C5.33 3.35 5.66 1.7 6 0 C6.66 0 7.32 0 8 0 C8 3.96 8 7.92 8 12 C6.35 10.35 4.7 8.7 3 7 C2.67 8.32 2.34 9.64 2 11 C1.34 11 0.68 11 0 11 C0 7.37 0 3.74 0 0 Z " fill="#040404" transform="translate(184,302)"/>
<path d="M0 0 C2.97 0.495 2.97 0.495 6 1 C7.125 5.75 7.125 5.75 6 8 C6.33 8.99 6.66 9.98 7 11 C6.401875 10.814375 5.80375 10.62875 5.1875 10.4375 C2.83591238 9.77906313 2.83591238 9.77906313 0 11 C0 7.37 0 3.74 0 0 Z M2 2 C2.33 3.32 2.66 4.64 3 6 C3.66 5.67 4.32 5.34 5 5 C4.67 4.01 4.34 3.02 4 2 C3.34 2 2.68 2 2 2 Z " fill="#030303" transform="translate(147,302)"/>
<path d="M0 0 C5.75 0.75 5.75 0.75 8 3 C8.25 6 8.25 6 8 9 C6 11 6 11 2.875 11.125 C1.451875 11.063125 1.451875 11.063125 0 11 C0 7.37 0 3.74 0 0 Z M2 2 C2 4.31 2 6.62 2 9 C3.32 8.67 4.64 8.34 6 8 C5.67 6.35 5.34 4.7 5 3 C4.01 2.67 3.02 2.34 2 2 Z " fill="#020202" transform="translate(204,302)"/>
<path d="M0 0 C0.66 0 1.32 0 2 0 C3.32 3.63 4.64 7.26 6 11 C5.01 11 4.02 11 3 11 C3 10.34 3 9.68 3 9 C0.69 9.66 -1.62 10.32 -4 11 C-3.52269162 9.5410574 -3.04308958 8.08286504 -2.5625 6.625 C-2.29566406 5.81289063 -2.02882813 5.00078125 -1.75390625 4.1640625 C-1 2 -1 2 0 0 Z M0 5 C0 5.66 0 6.32 0 7 C0.66 6.67 1.32 6.34 2 6 C1.34 5.67 0.68 5.34 0 5 Z " fill="#030303" transform="translate(337,302)"/>
<path d="M0 0 C0.66 0 1.32 0 2 0 C2.99 1.98 3.98 3.96 5 6 C5.99 4.02 6.98 2.04 8 0 C8.66 0 9.32 0 10 0 C9.57405412 1.44096586 9.13373367 2.87768712 8.6875 4.3125 C8.44386719 5.11300781 8.20023437 5.91351563 7.94921875 6.73828125 C6.95817977 9.09964573 5.91925057 10.33879993 4 12 C3.32645501 10.56570999 2.66140299 9.12742943 2 7.6875 C1.62875 6.88699219 1.2575 6.08648437 0.875 5.26171875 C0 3 0 3 0 0 Z " fill="#020202" transform="translate(353,302)"/>
<path d="M0 0 C2.31 0 4.62 0 7 0 C7 0.66 7 1.32 7 2 C5.35 2 3.7 2 2 2 C2 2.99 2 3.98 2 5 C3.65 5 5.3 5 7 5 C7 5.66 7 6.32 7 7 C5.35 7 3.7 7 2 7 C2 7.99 2 8.98 2 10 C3.65 10 5.3 10 7 10 C7 10.33 7 10.66 7 11 C4.69 11 2.38 11 0 11 C0 7.37 0 3.74 0 0 Z " fill="#010101" transform="translate(165,302)"/>
<path d="M0 0 C2.31 0 4.62 0 7 0 C7 0.66 7 1.32 7 2 C5.35 2 3.7 2 2 2 C2 2.99 2 3.98 2 5 C3.32 5 4.64 5 6 5 C6 5.66 6 6.32 6 7 C4.68 7 3.36 7 2 7 C2 7.99 2 8.98 2 10 C3.65 10 5.3 10 7 10 C7 10.33 7 10.66 7 11 C4.69 11 2.38 11 0 11 C0 7.37 0 3.74 0 0 Z " fill="#050505" transform="translate(374,302)"/>
<path d="M0 0 C6.27 0 12.54 0 19 0 C18.67 0.99 18.34 1.98 18 3 C15.03 3 12.06 3 9 3 C9 2.67 9 2.34 9 2 C6.03 1.67 3.06 1.34 0 1 C0 0.67 0 0.34 0 0 Z " fill="#060707" transform="translate(156,142)"/>
<path d="M0 0 C1.98 0 3.96 0 6 0 C6 0.66 6 1.32 6 2 C5.34 2 4.68 2 4 2 C4 4.97 4 7.94 4 11 C3.34 11 2.68 11 2 11 C2 8.03 2 5.06 2 2 C1.34 2 0.68 2 0 2 C0 1.34 0 0.68 0 0 Z " fill="#020202" transform="translate(129,302)"/>
</svg>
